# xmcd
#
# Track frame offsets:
#       225
#       18160
#       34362
#       47862
#       61585
#       81260
#       94020
#       109287
#       131795
#       153927
#       171207
#       186725
#       204925
#       218085
#       231162
#       248810
#       269295
#       285117
#       300492
#       314812
#
# Disc length: 4390 seconds
#
# Revision: 0
# Processed by: cddbd v1.4PL0 Copyright (c) Steve Scherf et al.
# Submitted via: WhereIsIt 3.22
#
DISCID=1a112314
DTITLE=Lena Horne - 20 golden memories/The amazing Lena Horne
DYEAR=1900
DGENRE=
TTITLE0=Your song
TTITLE1=Maybe i'm amazed
TTITLE2=Think about your troubles
TTITLE3=Feels so good
TTITLE4=A song for you
TTITLE5=I wouldn't have you any other way
TTITLE6=Being green
TTITLE7=Mother time
TTITLE8=Only the moon and me
TTITLE9=More today than yesterday
TTITLE10=Rocky Raccoon
TTITLE11=Yesterday when i was young
TTITLE12=In my life
TTITLE13=Everybody's talkin'
TTITLE14=Watch what happens
TTITLE15=My mood is you
TTITLE16=Nightwind
TTITLE17=The fool on the hill
TTITLE18=Something
TTITLE19=Message to Michael
EXTD=
EXTT0=
EXTT1=
EXTT2=
EXTT3=
EXTT4=
EXTT5=
EXTT6=
EXTT7=
EXTT8=
EXTT9=
EXTT10=
EXTT11=
EXTT12=
EXTT13=
EXTT14=
EXTT15=
EXTT16=
EXTT17=
EXTT18=
EXTT19=
PLAYORDER=
